<?xml version="1.0" encoding="utf-8"?>
<!-- Generator: Adobe Illustrator 22.0.0, SVG Export Plug-In . SVG Version: 6.00 Build 0)  -->
<svg version="1.1" id="Layer_1" xmlns="http://www.w3.org/2000/svg" xmlns:xlink="http://www.w3.org/1999/xlink" x="0px" y="0px"
	 viewBox="0 0 20 20" style="enable-background:new 0 0 20 20;" xml:space="preserve">
<style type="text/css">
	.st0{fill:#FFFFFF;}
</style>
<g>
	<g>
		<path class="st0" d="M8.9,16.6c-4.2,0-7.6-3.4-7.6-7.6s3.4-7.6,7.6-7.6s7.6,3.4,7.6,7.6S13.1,16.6,8.9,16.6z M8.9,3
			C5.6,3,3,5.7,3,9s2.6,5.9,5.9,5.9s5.9-2.6,5.9-5.9S12.2,3,8.9,3z"/>
	</g>
	<g>
		<path class="st0" d="M17.9,18.6c-0.2,0-0.4-0.1-0.6-0.3l-4.2-4c-0.3-0.3-0.3-0.8,0-1.2c0.3-0.3,0.8-0.3,1.2,0l4.2,4
			c0.3,0.3,0.3,0.8,0,1.2C18.4,18.6,18.1,18.6,17.9,18.6z"/>
	</g>
</g>
</svg>
