<?xml version="1.0" encoding="utf-8"?>
<!-- Generator: Adobe Illustrator 22.0.0, SVG Export Plug-In . SVG Version: 6.00 Build 0)  -->
<svg version="1.1" id="Layer_1" xmlns="http://www.w3.org/2000/svg" xmlns:xlink="http://www.w3.org/1999/xlink" x="0px" y="0px"
	 viewBox="0 0 20 20" style="enable-background:new 0 0 20 20;" xml:space="preserve">
<style type="text/css">
	.st0{fill:#333333;}
</style>
<g>
	<path class="st0" d="M17.8,6.6c0,0-0.2-1.1-0.6-1.6c-0.6-0.7-1.3-0.7-1.6-0.7C13.4,4.1,10,4.1,10,4.1l0,0c0,0-3.3,0-5.6,0.2
		c-0.3,0-1,0.1-1.6,0.7C2.3,5.5,2.2,6.6,2.2,6.6S2,7.9,2,9.3v0.2v1.1c0,1.3,0.2,2.7,0.2,2.7s0.2,1.1,0.6,1.7
		c0.6,0.7,1.4,0.6,1.8,0.7c1.3,0.1,5.4,0.2,5.4,0.2s3.3,0,5.6-0.2c0.3,0,1,0,1.6-0.7c0.5-0.5,0.6-1.7,0.6-1.7S18,12,18,10.6v-1V9.4
		C18,7.9,17.8,6.6,17.8,6.6L17.8,6.6z M12.7,9.7L8.4,12V8.4V7.3l2,1.1L12.7,9.7z"/>
</g>
</svg>
