<?xml version="1.0" encoding="utf-8"?>
<!-- Generator: Adobe Illustrator 22.0.0, SVG Export Plug-In . SVG Version: 6.00 Build 0)  -->
<svg version="1.1" id="Layer_1" xmlns="http://www.w3.org/2000/svg" xmlns:xlink="http://www.w3.org/1999/xlink" x="0px" y="0px"
	 viewBox="0 0 20 20" style="enable-background:new 0 0 20 20;" xml:space="preserve">
<style type="text/css">
	.st0{fill:#333333;}
</style>
<g>
	<path class="st0" d="M6,9.6c0-2.2,1.8-4,4-4s4,1.8,4,4s-1.8,4-4,4S6,11.8,6,9.6L6,9.6z M14.2,2H5.7C3.7,2,2,3.7,2,5.7v8.6
		c0,2,1.7,3.7,3.7,3.7h8.5c2.1,0,3.8-1.7,3.8-3.8V5.8C18,3.7,16.4,2,14.2,2L14.2,2z M5.8,3h8.4C15.7,3,17,4.3,17,5.8v8.4
		c0,1.5-1.3,2.8-2.8,2.8H5.8C4.3,17,3,15.7,3,14.2V5.8C3,4.2,4.2,3,5.8,3L5.8,3z M15,3.8c-0.5,0-0.8,0.4-0.8,0.8
		c0,0.5,0.4,0.8,0.8,0.8c0.5,0,0.8-0.4,0.8-0.8S15.5,3.8,15,3.8L15,3.8z M15.1,9.6c0-2.8-2.3-5.1-5.1-5.1S4.9,6.8,4.9,9.6
		s2.3,5.1,5.1,5.1C12.9,14.7,15.1,12.4,15.1,9.6L15.1,9.6z"/>
</g>
</svg>
