<?xml version="1.0" encoding="utf-8"?>
<!-- Generator: Adobe Illustrator 22.0.0, SVG Export Plug-In . SVG Version: 6.00 Build 0)  -->
<svg version="1.1" id="Layer_1" xmlns="http://www.w3.org/2000/svg" xmlns:xlink="http://www.w3.org/1999/xlink" x="0px" y="0px"
	 viewBox="0 0 249.8 56.9" style="enable-background:new 0 0 249.8 56.9;" xml:space="preserve">
<style type="text/css">
	.st0{fill:#333333;}
	.st1{fill-rule:evenodd;clip-rule:evenodd;fill:#333333;}
	.st2{fill:#EDA312;}
	.st3{fill:#F8CB20;}
	.st4{fill:#FFEEA0;}
	.st5{fill:#B3965D;}
	.st6{fill:#FBC13B;}
	.st7{fill:#FFDE94;}
	.st8{fill:#3A4145;}
</style>
<g>
	<g>
		<path class="st0" d="M52.5,33.7c-5,0-9-4-9-9s4-9,9-9s9,4,9,9S57.5,33.7,52.5,33.7z M52.5,17.7c-3.9,0-7,3.1-7,7s3.1,7,7,7
			c3.9,0,7-3.1,7-7S56.4,17.7,52.5,17.7z"/>
	</g>
	<g>
		<path class="st0" d="M63.1,36.1c-0.2,0-0.5-0.1-0.7-0.3l-5-4.7c-0.4-0.4-0.4-1,0-1.4c0.4-0.4,1-0.4,1.4,0l5,4.7
			c0.4,0.4,0.4,1,0,1.4C63.7,36,63.4,36.1,63.1,36.1z"/>
	</g>
</g>
<g>
	<path class="st0" d="M7.4,48.7V12.5l26.4,18.1L7.4,48.7z M9.4,16.3v28.5l20.9-14.3L9.4,16.3z"/>
</g>
<g>
	<g>
		<path class="st0" d="M81.6,36.4c-0.3,0-0.5-0.1-0.7-0.3c-0.4-0.4-0.4-1,0-1.4l12.2-12c0.4-0.4,1-0.4,1.4,0c0.4,0.4,0.4,1,0,1.4
			l-12.2,12C82.1,36.3,81.8,36.4,81.6,36.4z"/>
	</g>
	<g>
		<path class="st0" d="M93.8,34c-0.6,0-1-0.4-1-1v-9.6c0-0.6,0.4-1,1-1s1,0.4,1,1V33C94.8,33.6,94.4,34,93.8,34z"/>
	</g>
	<g>
		<path class="st0" d="M93.8,24.4h-9.6c-0.6,0-1-0.4-1-1s0.4-1,1-1h9.6c0.6,0,1,0.4,1,1S94.4,24.4,93.8,24.4z"/>
	</g>
</g>
<g>
	<path class="st1" d="M116.2,25.1v-1.3c0-0.6,0.4-0.7,0.7-0.7c0.3,0,1.8,0,1.8,0v-2.7h-2.4c-2.7,0-3.3,2-3.3,3.3v1.4h-1.6V27v1.2
		h1.6c0,3.6,0,7.8,0,7.8h3.1c0,0,0-4.3,0-7.8h2.3l0.1-1.2l0.2-1.9H116.2z"/>
</g>
<g>
	<path class="st1" d="M177.4,24.7c0,0-0.2-1.1-0.6-1.6c-0.6-0.7-1.3-0.7-1.6-0.7c-2.2-0.2-5.6-0.2-5.6-0.2h0c0,0-3.3,0-5.6,0.2
		c-0.3,0-1,0.1-1.6,0.7c-0.5,0.5-0.6,1.6-0.6,1.6s-0.2,1.3-0.2,2.7v0.2v1.1c0,1.3,0.2,2.7,0.2,2.7s0.2,1.1,0.6,1.7
		c0.6,0.7,1.4,0.6,1.8,0.7c1.3,0.1,5.4,0.2,5.4,0.2s3.3,0,5.6-0.2c0.3,0,1,0,1.6-0.7c0.5-0.5,0.6-1.7,0.6-1.7s0.2-1.3,0.2-2.7v-1
		v-0.2C177.6,26,177.4,24.7,177.4,24.7L177.4,24.7z M172.3,27.8l-4.3,2.3v-3.6v-1.1l2,1.1L172.3,27.8z"/>
</g>
<g>
	<path class="st1" d="M205.3,22.7c-0.6,0.3-1.3,0.4-2,0.5c0.7-0.4,1.3-1.1,1.5-1.9c-0.7,0.4-1.4,0.7-2.2,0.8
		c-0.6-0.7-1.5-1.1-2.5-1.1c-1.9,0-3.4,1.5-3.4,3.4c0,0.3,0,0.5,0.1,0.8c-2.9-0.1-5.4-1.5-7.1-3.5c-0.3,0.5-0.5,1.1-0.5,1.7
		c0,1.2,0.6,2.2,1.5,2.8c-0.6,0-1.1-0.2-1.6-0.4c0,0,0,0,0,0c0,0.4,0.1,0.8,0.2,1.2c0.4,1.1,1.4,1.9,2.5,2.1
		c-0.3,0.1-0.6,0.1-0.9,0.1c-0.2,0-0.4,0-0.6-0.1c0.4,1.4,1.7,2.3,3.2,2.4c-1.2,0.9-2.7,1.5-4.3,1.5c-0.3,0-0.5,0-0.8,0
		c1.5,1,3.3,1.5,5.3,1.5c5.4,0,8.7-3.7,9.6-7.6c0.2-0.7,0.2-1.4,0.2-2.1c0-0.1,0-0.3,0-0.4C204.2,24,204.8,23.4,205.3,22.7
		L205.3,22.7z"/>
</g>
<g>
	<path class="st1" d="M136.9,28c0-2.2,1.8-4,4-4c2.2,0,4,1.8,4,4c0,2.2-1.8,4-4,4C138.7,32,136.9,30.2,136.9,28L136.9,28z
		 M145.1,20.1h-8.3c-2,0-3.7,1.7-3.7,3.7v8.3c0,2,1.7,3.7,3.7,3.7h8.3c2.1,0,3.7-1.7,3.7-3.7v-8.3C148.8,21.8,147.2,20.1,145.1,20.1
		L145.1,20.1z M136.8,21.1h8.3c1.5,0,2.8,1.3,2.8,2.8v8.3c0,1.5-1.3,2.8-2.8,2.8h-8.3c-1.5,0-2.8-1.3-2.8-2.8v-8.3
		C134,22.3,135.2,21.1,136.8,21.1L136.8,21.1z M145.9,22.2c-0.5,0-0.8,0.4-0.8,0.8c0,0.5,0.4,0.8,0.8,0.8c0.5,0,0.8-0.4,0.8-0.8
		C146.7,22.6,146.4,22.2,145.9,22.2L145.9,22.2z M146,28c0-2.8-2.3-5.1-5.1-5.1c-2.8,0-5.1,2.3-5.1,5.1c0,2.8,2.3,5.1,5.1,5.1
		C143.8,33.1,146,30.8,146,28L146,28z"/>
</g>
<g>
	<g>
		<g>
			<path class="st0" d="M220.8,27.5h-5.5l0,1.6h3.7c-0.4,1.9-1.8,3.1-3.6,3.1c-2.4,0-4.3-1.9-4.3-4.3c0-2.4,1.9-4.3,4.3-4.3
				c1.1,0,2.2,0.4,2.9,1.2l1.2-1c-1.1-1.1-2.5-1.7-4.1-1.7c-3.3,0-5.9,2.6-5.9,5.9s2.6,5.9,5.9,5.9c3.1,0,5.4-2.4,5.4-5.7
				L220.8,27.5z"/>
		</g>
		<g>
			<g>
				<rect x="222.7" y="27.5" class="st0" width="6" height="1.4"/>
			</g>
			<g>
				
					<rect x="222.7" y="27.5" transform="matrix(-1.836970e-16 1 -1 -1.836970e-16 253.9203 -197.3942)" class="st0" width="6" height="1.4"/>
			</g>
		</g>
	</g>
</g>
<g>
	<g>
		<g>
			<circle class="st2" cx="220.4" cy="-55.1" r="21.8"/>
		</g>
		<g>
			<circle class="st3" cx="220.4" cy="-55.1" r="16.1"/>
		</g>
		<g>
			<g>
				<path class="st4" d="M233.5-58.1c-0.3-1.4-0.9-2.7-1.6-4l-18.4,18.4c1.2,0.7,2.5,1.3,4,1.6L233.5-58.1z"/>
			</g>
			<g>
				<path class="st4" d="M222.7-68.3l-15.5,15.5c0.6,3.2,2.2,6,4.6,8l18.9-18.9C228.7-66.1,225.9-67.8,222.7-68.3z"/>
			</g>
		</g>
	</g>
</g>
<g>
	<g>
		
			<rect x="280.9" y="-65.4" transform="matrix(0.6074 -0.7944 0.7944 0.6074 154.6213 202.6624)" class="st5" width="3" height="20.6"/>
	</g>
	<g>
		
			<rect x="286.2" y="-56.6" transform="matrix(0.7943 -0.6075 0.6075 0.7943 94.4631 168.8017)" class="st5" width="20.6" height="3"/>
	</g>
</g>
<g id="XMLID_4_">
	<g id="XMLID_3_">
		<polygon class="st6" points="126.5,-64.4 112,-59.8 111.9,-75 103,-87.4 117.5,-92.2 126.5,-104.5 135.5,-92.2 150,-87.4 
			141.1,-75 141,-59.8 		"/>
	</g>
	<g id="XMLID_7_">
		<g id="XMLID_9_">
			<path class="st7" d="M126.5-78.2c-8.5,0-16.1-3.9-21.1-10l-2.4,0.8l8.8,12.4l0.1,15.2l14.5-4.6l14.5,4.6l0.1-15.2l8.8-12.4
				l-2.4-0.8C142.6-82.1,135-78.2,126.5-78.2z"/>
		</g>
	</g>
	<g id="XMLID_1_">
		<polygon class="st6" points="126.5,-99.6 133.8,-89.8 145.4,-85.9 138.3,-75.9 138.2,-63.7 126.5,-67.4 114.8,-63.7 114.7,-75.9 
			107.6,-85.9 119.2,-89.8 		"/>
	</g>
	<g id="XMLID_8_">
		<path class="st7" d="M126.5-99.6l-7.3,9.8l-11.6,3.9l0.2,0.3c4.9,4.6,11.4,7.5,18.7,7.5c7.2,0,13.8-2.8,18.7-7.5l0.2-0.3
			l-11.6-3.9L126.5-99.6z"/>
	</g>
</g>
<g>
	<g>
		<path class="st8" d="M246.7-165.8c0-2.5-2-4.6-4.6-4.6c-2.5,0-4.6,2-4.6,4.6c0,2.5,2,4.6,4.6,4.6
			C244.7-161.2,246.7-163.3,246.7-165.8z"/>
	</g>
	<g>
		<path class="st8" d="M246.3-143.8c-1,1.1-2,2-2.6,2.6c-0.4,0.4-1,0.6-1.5,0.6c-0.4,0-1-0.1-1.6-0.7c-0.6-0.6-1.5-1.4-2.5-2.5
			c-2.2,0.5-3.6,1.3-3.6,2.2c0,1.4,3.5,2.6,7.8,2.6c4.3,0,7.8-1.2,7.8-2.6C249.9-142.5,248.5-143.3,246.3-143.8z"/>
	</g>
	<g>
		<path class="st8" d="M239.6-144C239.6-144,239.6-144,239.6-144c0.1,0.1,0.2,0.2,0.3,0.3c0,0,0,0,0,0c0.1,0.1,0.1,0.1,0.2,0.2
			c0,0,0,0,0.1,0.1c0.1,0.1,0.1,0.1,0.2,0.2c0,0,0,0,0,0c0.2,0.2,0.3,0.3,0.4,0.4c0,0,0,0,0.1,0.1c0,0,0.1,0.1,0.1,0.1
			c0,0,0,0,0.1,0.1c0,0,0.1,0.1,0.1,0.1c0,0,0,0,0.1,0.1c0.1,0.1,0.1,0.1,0.2,0.1c0.1,0.1,0.1,0.1,0.2,0.1c0,0,0,0,0.1,0
			c0,0,0.1,0,0.1,0.1c0,0,0,0,0.1,0c0,0,0.1,0,0.1,0c0,0,0,0,0.1,0c0,0,0.1,0,0.1,0c0,0,0,0,0,0c0,0,0.1,0,0.1,0c0,0,0,0,0.1,0
			c0,0,0.1,0,0.1,0c0,0,0,0,0.1,0c0,0,0.1,0,0.1-0.1c0,0,0,0,0.1,0c0.1,0,0.1-0.1,0.1-0.1c0.1,0,0.1-0.1,0.2-0.2c0,0,0,0,0,0
			c0.1,0,0.1-0.1,0.2-0.1c0,0,0,0,0,0c0.2-0.2,0.4-0.4,0.7-0.7c0,0,0,0,0,0c0.2-0.2,0.5-0.5,0.8-0.8c0,0,0,0,0,0h0
			c4.1-4.2,11.6-13,11.6-21.5c0-8.1-6.6-14.6-14.1-14.6c-7.5,0-14.1,6.5-14.1,14.6C228.1-157.1,235.6-148.2,239.6-144L239.6-144z
			 M234.6-165.8c0-4.2,3.4-7.6,7.6-7.6c4.2,0,7.6,3.4,7.6,7.6c0,4.2-3.4,7.6-7.6,7.6C238-158.2,234.6-161.6,234.6-165.8z"/>
	</g>
</g>
</svg>
