<?xml version="1.0" encoding="utf-8"?>
<!-- Generator: Adobe Illustrator 22.0.0, SVG Export Plug-In . SVG Version: 6.00 Build 0)  -->
<svg version="1.1" id="Layer_1" xmlns="http://www.w3.org/2000/svg" xmlns:xlink="http://www.w3.org/1999/xlink" x="0px" y="0px"
	 viewBox="0 0 249.8 56.9" style="enable-background:new 0 0 249.8 56.9;" xml:space="preserve">
<style type="text/css">
	.st0{fill:#231F20;}
</style>
<g>
	<g>
		<g>
			<g>
				<g>
					<path class="st0" d="M28.2,55.4c-1.9,0-3.6-0.7-5-2.1L3.2,33.3c-1.3-1.3-2.1-3.1-2.1-5s0.7-3.6,2.1-5L23.3,3.3
						c1.3-1.3,3.1-2.1,5-2.1s3.6,0.7,5,2.1l20.1,20.1c1.3,1.3,2.1,3.1,2.1,5s-0.7,3.6-2.1,5L33.2,53.4
						C31.9,54.7,30.1,55.4,28.2,55.4z M28.2,2.8c-1.5,0-2.8,0.6-3.9,1.6L4.3,24.5c-1,1-1.6,2.4-1.6,3.9s0.6,2.8,1.6,3.9l20.1,20.1
						c1,1,2.4,1.6,3.9,1.6s2.8-0.6,3.9-1.6l20.1-20.1c1-1,1.6-2.4,1.6-3.9s-0.6-2.8-1.6-3.9L32.1,4.4C31.1,3.4,29.7,2.8,28.2,2.8z"
						/>
				</g>
			</g>
			<g>
				<g>
					<path class="st0" d="M28.4,55.4c-1.4,0-2.3-1.2-2.6-1.9l-4.2-7.8L19.4,41c-2.2-4.7-0.1-6.8,0.5-7.3c0.4-0.6,2.2-3.1,4.8-5.5
						c2.7-2.5,5.9-1.1,7.3,0l0.1,0.1c0,0,2.9,3,4.7,5c2.1,2.4,1,6.5,0.9,6.7l-0.1,0.1l-6.6,13.7C31.1,54,30.1,55.4,28.4,55.4z
						 M23,45.1l4.2,7.8c0,0,0.4,0.9,1.2,0.9c0.8,0,1.2-0.6,1.3-0.8l6.5-13.5c0.1-0.5,0.8-3.6-0.6-5.2c-1.7-1.9-4.3-4.6-4.6-4.9
						c-0.3-0.3-3-2.1-5.2,0c-2.8,2.6-4.6,5.3-4.6,5.3L21,34.9L20.9,35c-0.1,0-1.9,1.4,0,5.4L23,45.1z"/>
				</g>
			</g>
			<g>
				<g>
					<path class="st0" d="M28.3,29.8c-1.6,0-3-0.7-3.8-1.4l-0.1-0.1c0,0-2.9-3-4.7-5.1c-2.1-2.4-1-6.5-0.9-6.7l0.1-0.1l6.6-13.7
						c0-0.1,1-1.5,2.7-1.5c1.4,0,2.3,1.2,2.6,1.9l4.2,7.8l2.2,4.8c2.2,4.7,0.1,6.8-0.5,7.3c-0.4,0.6-2.2,3.1-4.8,5.5
						C30.7,29.4,29.5,29.8,28.3,29.8z M25.5,27.3c0.3,0.3,3,2.1,5.2,0c2.8-2.6,4.6-5.3,4.6-5.3l0.1-0.1l0.1-0.1c0.1,0,1.9-1.4,0-5.4
						l-2.2-4.7l-4.2-7.8c0,0-0.4-0.9-1.2-0.9c-0.8,0-1.2,0.6-1.3,0.8l-6.5,13.5c-0.1,0.5-0.8,3.6,0.6,5.2
						C22.6,24.2,25.2,26.9,25.5,27.3z"/>
				</g>
			</g>
			<g>
				<g>
					<path class="st0" d="M19.2,38.1c-1.4,0-2.6-0.3-2.7-0.3l-0.1-0.1L2.7,31.2c-0.1,0-1.5-1-1.5-2.7c0-1.4,1.2-2.3,1.9-2.6l7.8-4.2
						l4.8-2.2c4.7-2.2,6.8-0.1,7.3,0.5c0.6,0.4,3.1,2.2,5.5,4.8c2.5,2.7,1.1,5.9,0,7.3l-0.1,0.1c0,0-3,2.9-5.1,4.7
						C22.1,37.9,20.5,38.1,19.2,38.1z M17,36.3c0.5,0.1,3.6,0.8,5.2-0.6c1.9-1.7,4.6-4.3,4.9-4.6c0.3-0.3,2.1-3,0-5.2
						c-2.6-2.8-5.3-4.6-5.3-4.6l-0.1-0.1L21.6,21c0-0.1-1.4-1.9-5.4,0l-4.7,2.2l-7.8,4.2c0,0-0.9,0.4-0.9,1.2c0,0.8,0.6,1.2,0.8,1.3
						L17,36.3z"/>
				</g>
			</g>
			<g>
				<g>
					<path class="st0" d="M37.1,38.1c-2.1,0-3.1-1-3.4-1.4c-0.6-0.4-3.1-2.2-5.5-4.8c-2.5-2.7-1.1-5.9,0-7.3l0.1-0.1
						c0,0,3-2.9,5.1-4.7c2.4-2.1,6.5-1,6.7-0.9l0.1,0.1l13.7,6.6c0.1,0,1.5,1,1.5,2.7c0,1.4-1.2,2.3-1.9,2.6l-7.8,4.2l-4.8,2.2
						C39.4,37.9,38.1,38.1,37.1,38.1z M29.3,25.6c-0.3,0.3-2.1,3,0,5.2c2.6,2.8,5.3,4.6,5.3,4.6l0.1,0.1l0.1,0.1
						c0,0.1,1.4,1.9,5.4,0l4.7-2.2l7.8-4.2c0,0,0.9-0.4,0.9-1.2c0-0.8-0.6-1.2-0.8-1.3l-13.5-6.5c-0.5-0.1-3.6-0.8-5.2,0.6
						C32.4,22.7,29.7,25.3,29.3,25.6z"/>
				</g>
			</g>
		</g>
		<g>
			<path class="st0" d="M84,20.7h-5.1v-1.8h12.4v1.8h-5.1v14.9H84V20.7z"/>
			<path class="st0" d="M104.7,18.9v7h8.1v-7h2.2v16.7h-2.2v-7.8h-8.1v7.8h-2.2V18.9H104.7z"/>
			<path class="st0" d="M136.8,27.8h-6.5v6h7.2v1.8h-9.4V18.9h9.1v1.8h-6.9V26h6.5V27.8z"/>
			<path class="st0" d="M164.5,18.9h2.2v14.9h7.1v1.8h-9.3V18.9z"/>
			<path class="st0" d="M188.4,30.4l-1.7,5.3h-2.2l5.7-16.7h2.6l5.7,16.7h-2.3l-1.8-5.3H188.4z M193.9,28.7l-1.7-4.8
				c-0.4-1.1-0.6-2.1-0.9-3.1h0c-0.2,1-0.5,2-0.8,3l-1.6,4.8H193.9z"/>
			<path class="st0" d="M210.3,35.6V18.9h2.4l5.3,8.5c1.2,2,2.2,3.7,3,5.4l0.1,0c-0.2-2.2-0.2-4.3-0.2-6.9v-7h2v16.7h-2.2l-5.3-8.5
				c-1.2-1.9-2.3-3.8-3.1-5.6l-0.1,0c0.1,2.1,0.1,4.1,0.1,6.9v7.2H210.3z"/>
			<path class="st0" d="M238.8,30.4l-1.7,5.3h-2.2l5.7-16.7h2.6l5.7,16.7h-2.3l-1.8-5.3H238.8z M244.3,28.7l-1.7-4.8
				c-0.4-1.1-0.6-2.1-0.9-3.1h0c-0.2,1-0.5,2-0.8,3l-1.6,4.8H244.3z"/>
		</g>
	</g>
	<g>
		<path class="st0" d="M78.3,51.3l-0.9,2.6h-1.1l2.8-8.3h1.3l2.8,8.3h-1.1l-0.9-2.6H78.3z M81,50.5l-0.8-2.4c-0.2-0.5-0.3-1-0.4-1.5
			h0c-0.1,0.5-0.2,1-0.4,1.5l-0.8,2.4H81z"/>
		<path class="st0" d="M87.6,46.5H85v-0.9h6.1v0.9h-2.5v7.4h-1.1V46.5z"/>
		<path class="st0" d="M100.9,51.3l-0.9,2.6H99l2.8-8.3h1.3l2.8,8.3h-1.1l-0.9-2.6H100.9z M103.7,50.5l-0.8-2.4
			c-0.2-0.5-0.3-1-0.4-1.5h0c-0.1,0.5-0.2,1-0.4,1.5l-0.8,2.4H103.7z"/>
		<path class="st0" d="M109.6,45.6h1.1V53h3.5v0.9h-4.6V45.6z"/>
		<path class="st0" d="M119.2,51.3l-0.9,2.6h-1.1l2.8-8.3h1.3l2.8,8.3H123l-0.9-2.6H119.2z M121.9,50.5l-0.8-2.4
			c-0.2-0.5-0.3-1-0.4-1.5h0c-0.1,0.5-0.2,1-0.4,1.5l-0.8,2.4H121.9z"/>
		<path class="st0" d="M134.7,50.3c-0.1-1.2-0.1-2.6-0.1-3.6h0c-0.3,1-0.6,2-1,3.1l-1.5,4h-0.8l-1.4-3.9c-0.4-1.2-0.7-2.2-0.9-3.2h0
			c0,1-0.1,2.4-0.2,3.7l-0.2,3.5h-1l0.6-8.3h1.4l1.4,4c0.3,1,0.6,1.9,0.8,2.8h0c0.2-0.8,0.5-1.7,0.9-2.8l1.5-4h1.4l0.5,8.3h-1.1
			L134.7,50.3z"/>
		<path class="st0" d="M145,52.6c0.5,0.3,1.2,0.5,1.9,0.5c1.1,0,1.7-0.6,1.7-1.4c0-0.8-0.4-1.2-1.6-1.6c-1.4-0.5-2.2-1.2-2.2-2.4
			c0-1.3,1.1-2.2,2.7-2.2c0.8,0,1.5,0.2,1.8,0.4l-0.3,0.9c-0.3-0.2-0.8-0.4-1.6-0.4c-1.1,0-1.6,0.7-1.6,1.2c0,0.8,0.5,1.2,1.6,1.6
			c1.4,0.5,2.1,1.2,2.1,2.4c0,1.3-0.9,2.4-2.9,2.4c-0.8,0-1.7-0.2-2.1-0.5L145,52.6z"/>
		<path class="st0" d="M154.7,45.6v4.9c0,1.8,0.8,2.6,1.9,2.6c1.2,0,2-0.8,2-2.6v-4.9h1.1v4.8c0,2.5-1.3,3.6-3.1,3.6
			c-1.7,0-3-1-3-3.5v-4.9H154.7z"/>
		<path class="st0" d="M165.6,46.5h-2.5v-0.9h6.1v0.9h-2.5v7.4h-1.1V46.5z"/>
		<path class="st0" d="M176.9,50h-3.2v3h3.6v0.9h-4.7v-8.3h4.5v0.9h-3.4v2.6h3.2V50z"/>
		<path class="st0" d="M181.1,45.7c0.5-0.1,1.3-0.2,2.1-0.2c1.1,0,1.9,0.2,2.4,0.7c0.4,0.4,0.7,0.9,0.7,1.6c0,1.1-0.7,1.8-1.5,2.1v0
			c0.6,0.2,1,0.8,1.2,1.7c0.3,1.2,0.5,2,0.6,2.3h-1.1c-0.1-0.2-0.3-0.9-0.5-2c-0.2-1.1-0.7-1.6-1.7-1.6h-1v3.6h-1.1V45.7z
			 M182.2,49.5h1.1c1.1,0,1.9-0.6,1.9-1.6c0-1.1-0.8-1.5-1.9-1.5c-0.5,0-0.9,0-1.1,0.1V49.5z"/>
		<path class="st0" d="M191.6,51.3l-0.9,2.6h-1.1l2.8-8.3h1.3l2.8,8.3h-1.1l-0.9-2.6H191.6z M194.3,50.5l-0.8-2.4
			c-0.2-0.5-0.3-1-0.4-1.5h0c-0.1,0.5-0.2,1-0.4,1.5l-0.8,2.4H194.3z"/>
	</g>
</g>
</svg>
