<?xml version="1.0" encoding="utf-8"?>
<!-- Generator: Adobe Illustrator 22.0.0, SVG Export Plug-In . SVG Version: 6.00 Build 0)  -->
<svg version="1.1" id="Layer_1" xmlns="http://www.w3.org/2000/svg" xmlns:xlink="http://www.w3.org/1999/xlink" x="0px" y="0px"
	 viewBox="0 0 350 80" style="enable-background:new 0 0 350 80;" xml:space="preserve">
<style type="text/css">
	.st0{fill:#9A694B;}
</style>
<g>
	<g>
		<g>
			<g>
				<g>
					<path class="st0" d="M39.4,77.8c-2.6,0-5.1-1-6.9-2.9l-28-28c-1.9-1.9-2.9-4.3-2.9-6.9c0-2.6,1-5.1,2.9-6.9l28-28
						c1.9-1.9,4.3-2.9,6.9-2.9c2.6,0,5.1,1,6.9,2.9l28,28c1.9,1.9,2.9,4.3,2.9,6.9c0,2.6-1,5.1-2.9,6.9l-28,28
						C44.5,76.8,42,77.8,39.4,77.8z M39.4,4.4c-2,0-4,0.8-5.4,2.2l-28,28C4.6,36,3.8,38,3.8,40c0,2,0.8,4,2.2,5.4l28,28
						c1.4,1.4,3.4,2.2,5.4,2.2c2,0,4-0.8,5.4-2.2l28-28C74.2,44,75,42,75,40c0-2-0.8-4-2.2-5.4l-28-28C43.4,5.2,41.4,4.4,39.4,4.4z"
						/>
				</g>
			</g>
			<g>
				<g>
					<path class="st0" d="M39.6,77.8c-2,0-3.2-1.6-3.6-2.6l-5.8-10.8l-3.1-6.6c-3-6.5-0.2-9.5,0.6-10.1c0.5-0.8,3-4.3,6.7-7.7
						c3.7-3.5,8.3-1.5,10.2-0.1l0.1,0.1c0,0,4.1,4.2,6.6,7.1c2.9,3.3,1.4,9.1,1.3,9.4l-0.1,0.2l-9.2,19.1
						C43.3,75.8,42.1,77.8,39.6,77.8z M32.2,63.4L38,74.3c0,0,0.6,1.3,1.6,1.3c1.1,0,1.7-0.9,1.9-1.1l9-18.9c0.2-0.7,1.1-5-0.9-7.3
						c-2.3-2.7-6-6.4-6.5-6.9c-0.5-0.4-4.2-2.9-7.3,0c-3.9,3.6-6.5,7.4-6.5,7.5l-0.1,0.2l-0.2,0.1c-0.1,0.1-2.7,1.9-0.1,7.5
						L32.2,63.4z"/>
				</g>
			</g>
			<g>
				<g>
					<path class="st0" d="M39.6,42c-2.2,0-4.2-1-5.4-1.9l-0.1-0.1c0,0-4.1-4.2-6.6-7.1c-2.9-3.3-1.4-9.1-1.3-9.4l0.1-0.2l9.2-19.1
						c0.1-0.1,1.3-2.2,3.8-2.2c2,0,3.2,1.6,3.6,2.6l5.8,10.8l3.1,6.6c3,6.5,0.2,9.5-0.6,10.1c-0.5,0.8-3,4.3-6.7,7.7
						C42.8,41.5,41.1,42,39.6,42z M35.6,38.5c0.5,0.4,4.2,2.9,7.3,0c3.9-3.6,6.5-7.4,6.5-7.5l0.1-0.2l0.2-0.1
						c0.1-0.1,2.7-1.9,0.1-7.5l-3.1-6.6L40.8,5.7c0,0-0.6-1.3-1.6-1.3c-1.1,0-1.7,0.9-1.9,1.1l-9,18.9c-0.2,0.7-1.1,5,0.9,7.3
						C31.5,34.3,35.1,38,35.6,38.5z"/>
				</g>
			</g>
			<g>
				<g>
					<path class="st0" d="M26.8,53.7c-2,0-3.6-0.4-3.7-0.4l-0.2-0.1L3.7,44c-0.1-0.1-2.2-1.3-2.2-3.8c0-2,1.6-3.2,2.6-3.6L15,30.8
						l6.6-3.1c6.5-3,9.5-0.2,10.1,0.6c0.8,0.5,4.3,3,7.7,6.7c3.5,3.7,1.5,8.3,0.1,10.2l-0.1,0.1c0,0-4.2,4.1-7.1,6.6
						C30.8,53.3,28.6,53.7,26.8,53.7z M23.7,51.1c0.7,0.2,5,1.1,7.3-0.9c2.7-2.3,6.4-6,6.9-6.5c0.4-0.5,2.9-4.2,0-7.3
						c-3.6-3.9-7.4-6.5-7.5-6.5l-0.2-0.1l-0.1-0.2c-0.1-0.1-1.9-2.7-7.5-0.1L16,32.8L5.1,38.6c0,0-1.3,0.6-1.3,1.6
						c0,1.1,0.9,1.7,1.1,1.9L23.7,51.1z"/>
				</g>
			</g>
			<g>
				<g>
					<path class="st0" d="M51.7,53.7c-2.9,0-4.3-1.5-4.8-2c-0.8-0.5-4.3-3-7.7-6.7c-3.5-3.7-1.5-8.3-0.1-10.2l0.1-0.1
						c0,0,4.2-4.1,7.1-6.6c3.3-2.9,9.1-1.4,9.4-1.3l0.2,0.1L75.1,36c0.1,0.1,2.2,1.3,2.2,3.8c0,2-1.6,3.2-2.6,3.6l-10.8,5.8
						l-6.6,3.1C54.9,53.3,53.2,53.7,51.7,53.7z M40.9,36.2c-0.4,0.5-2.9,4.2,0,7.3c3.6,3.9,7.4,6.5,7.5,6.5l0.2,0.1l0.1,0.2
						c0.1,0.1,1.9,2.7,7.5,0.1l6.6-3.1l10.9-5.9c0,0,1.3-0.6,1.3-1.6c0-1.1-0.9-1.7-1.1-1.9l-18.9-9c-0.7-0.2-5-1.1-7.3,0.9
						C45.2,32.1,41.4,35.7,40.9,36.2z"/>
				</g>
			</g>
		</g>
		<g>
			<path class="st0" d="M117.2,29.4h-7.1v-2.6h17.3v2.6h-7.1v20.8h-3.1V29.4z"/>
			<path class="st0" d="M146.2,26.8v9.8h11.3v-9.8h3.1v23.4h-3.1v-11h-11.3v11h-3.1V26.8H146.2z"/>
			<path class="st0" d="M191,39.2h-9v8.4h10.1v2.5h-13.2V26.8h12.7v2.5H182v7.4h9V39.2z"/>
			<path class="st0" d="M229.7,26.8h3.1v20.8h10v2.5h-13V26.8z"/>
			<path class="st0" d="M263,42.8l-2.4,7.3h-3.1l8-23.4h3.6l8,23.4h-3.2l-2.5-7.3H263z M270.7,40.5l-2.3-6.7
				c-0.5-1.5-0.9-2.9-1.2-4.3h-0.1c-0.3,1.4-0.7,2.8-1.2,4.2l-2.3,6.8H270.7z"/>
			<path class="st0" d="M293.6,50.2V26.8h3.3l7.5,11.8c1.7,2.7,3.1,5.2,4.2,7.6l0.1,0c-0.3-3.1-0.3-6-0.3-9.6v-9.8h2.8v23.4h-3.1
				l-7.4-11.9c-1.6-2.6-3.2-5.3-4.3-7.8l-0.1,0c0.2,2.9,0.2,5.8,0.2,9.6v10H293.6z"/>
			<path class="st0" d="M333.4,42.8l-2.4,7.3h-3.1l8-23.4h3.6l8,23.4h-3.2l-2.5-7.3H333.4z M341.1,40.5l-2.3-6.7
				c-0.5-1.5-0.9-2.9-1.2-4.3h-0.1c-0.3,1.4-0.7,2.8-1.2,4.2l-2.3,6.8H341.1z"/>
		</g>
	</g>
	<g>
		<path class="st0" d="M109.3,72l-1.2,3.6h-1.5l3.9-11.6h1.8l3.9,11.6h-1.6l-1.2-3.6H109.3z M113.1,70.9l-1.1-3.3
			c-0.3-0.8-0.4-1.4-0.6-2.1h0c-0.2,0.7-0.3,1.4-0.6,2.1l-1.1,3.3H113.1z"/>
		<path class="st0" d="M122.2,65.4h-3.5v-1.3h8.6v1.3h-3.5v10.3h-1.5V65.4z"/>
		<path class="st0" d="M140.9,72l-1.2,3.6h-1.5l3.9-11.6h1.8l3.9,11.6h-1.6L145,72H140.9z M144.7,70.9l-1.1-3.3
			c-0.3-0.8-0.4-1.4-0.6-2.1h0c-0.2,0.7-0.3,1.4-0.6,2.1l-1.1,3.3H144.7z"/>
		<path class="st0" d="M153,64.1h1.5v10.3h4.9v1.3H153V64.1z"/>
		<path class="st0" d="M166.4,72l-1.2,3.6h-1.5l3.9-11.6h1.8l3.9,11.6h-1.6l-1.2-3.6H166.4z M170.2,70.9l-1.1-3.3
			c-0.3-0.8-0.4-1.4-0.6-2.1h0c-0.2,0.7-0.3,1.4-0.6,2.1l-1.1,3.3H170.2z"/>
		<path class="st0" d="M188.1,70.6c-0.1-1.6-0.2-3.6-0.2-5h0c-0.4,1.3-0.9,2.8-1.5,4.4l-2,5.6h-1.1l-1.9-5.5c-0.5-1.6-1-3.1-1.3-4.5
			h0c0,1.4-0.1,3.4-0.2,5.1l-0.3,5h-1.4l0.8-11.6h1.9l2,5.6c0.5,1.4,0.9,2.7,1.2,3.9h0c0.3-1.2,0.7-2.4,1.2-3.9l2.1-5.6h1.9
			l0.7,11.6h-1.5L188.1,70.6z"/>
		<path class="st0" d="M202.4,73.9c0.7,0.4,1.6,0.8,2.7,0.8c1.5,0,2.4-0.8,2.4-2c0-1.1-0.6-1.7-2.2-2.3c-1.9-0.7-3.1-1.7-3.1-3.3
			c0-1.8,1.5-3.1,3.7-3.1c1.2,0,2,0.3,2.5,0.6l-0.4,1.2c-0.4-0.2-1.1-0.5-2.2-0.5c-1.6,0-2.2,0.9-2.2,1.7c0,1.1,0.7,1.6,2.3,2.2
			c2,0.8,2.9,1.7,2.9,3.4c0,1.8-1.3,3.3-4,3.3c-1.1,0-2.3-0.3-2.9-0.8L202.4,73.9z"/>
		<path class="st0" d="M216,64.1V71c0,2.6,1.1,3.7,2.7,3.7c1.7,0,2.8-1.1,2.8-3.7v-6.9h1.5v6.8c0,3.6-1.9,5-4.4,5
			c-2.4,0-4.2-1.3-4.2-4.9v-6.8H216z"/>
		<path class="st0" d="M231.2,65.4h-3.5v-1.3h8.6v1.3h-3.5v10.3h-1.5V65.4z"/>
		<path class="st0" d="M247,70.3h-4.5v4.2h5v1.3H241V64.1h6.3v1.3h-4.8V69h4.5V70.3z"/>
		<path class="st0" d="M252.9,64.3c0.8-0.1,1.9-0.2,2.9-0.2c1.6,0,2.6,0.3,3.3,0.9c0.6,0.5,0.9,1.3,0.9,2.2c0,1.5-1,2.5-2.2,2.9v0.1
			c0.9,0.3,1.4,1.1,1.7,2.3c0.4,1.6,0.7,2.7,0.9,3.2h-1.5c-0.2-0.3-0.4-1.3-0.8-2.8c-0.3-1.6-1-2.2-2.3-2.2h-1.4v5h-1.5V64.3z
			 M254.3,69.5h1.5c1.6,0,2.6-0.9,2.6-2.2c0-1.5-1.1-2.1-2.7-2.1c-0.7,0-1.2,0.1-1.5,0.1V69.5z"/>
		<path class="st0" d="M267.5,72l-1.2,3.6h-1.5l3.9-11.6h1.8l3.9,11.6h-1.6l-1.2-3.6H267.5z M271.3,70.9l-1.1-3.3
			c-0.3-0.8-0.4-1.4-0.6-2.1h0c-0.2,0.7-0.3,1.4-0.6,2.1l-1.1,3.3H271.3z"/>
	</g>
</g>
</svg>
